<?xml version="1.0" encoding="UTF-8"?>
<svg id="Calque_1" xmlns="http://www.w3.org/2000/svg" version="1.1" viewBox="0 0 595.28 841.89">
  <!-- Generator: Adobe Illustrator 29.7.1, SVG Export Plug-In . SVG Version: 2.1.1 Build 8)  -->
  <defs>
    <style>
      .st0 {
        fill: #ee7536;
      }

      .st1 {
        fill: #ed6da3;
      }

      .st2 {
        fill: #fff;
      }

      .st3 {
        fill: #ef793b;
      }

      .st4 {
        fill: #ee7638;
      }

      .st5 {
        fill: #ef7738;
      }
    </style>
  </defs>
  <path class="st2" d="M595.28,130.62v580.65H10.1V130.62h585.18ZM295.6,236.86c5.6,5.43,11.48.87,12.66-5.54v-81.8c-.37-9.55-14.38-9.99-15.51-.63v81.84c.27,2.96.77,4.12,2.85,6.14ZM225.43,219.65c-1.77-3.98-5.12-15.53-8.93-16.8-5.82-1.94-11.72,1.58-11.1,7.95.21,2.18,3.1,8.33,4.14,10.76.31.72,1.16.74,1.37,1.25,3.12,7.33,6.56,20.28,10.66,26.4,4.77,7.11,13.46,3.11,14.03-4.71-2.9-7.92-5.6-16.16-8.97-23.87-.32-.73-1.13-.82-1.2-.97ZM394.1,206.56c-2.37-3.47-4.76-4.93-9.15-3.93-3.71.85-4.03,4.89-5.41,7.47-.18.35-.91.4-1.18.94-5,10.16-8.44,22.32-12.93,32.82-.73,3.73,2.65,9.05,6.52,9.32,3.28.23,5.04-2.55,7.62-4.05,5.01-11.76,9.5-23.75,14.3-35.6.17-.42.92-.49,1.11-1,.99-2.56.42-4.05-.89-5.97ZM102.65,222.52c-2.02,2.25-2.84,6.87-.83,9.44.62.79,2.01,1.24,2.82,2.14,14.36,15.73,29.94,29.88,45.23,44.64,3.04,2.94,9.53,11.58,12.76,13.27,5.74,3.01,12.46-.61,11.69-7.32-.6-5.17-8.07-9.92-11.44-13.37-15.51-15.91-31.18-31.62-47.42-46.79-.89-.83-1.35-2.15-2.14-2.82-2.81-2.38-8.34-1.78-10.67.82ZM486.58,223.36c-15.53,12.95-30.08,29.47-44.39,43.93-3.48,3.52-14.74,12.17-15.49,16.74-.89,5.41,2.8,9.68,8.28,8.92s15.1-13.25,19.25-17.34c14.55-14.33,29.9-27.86,43.72-43.05,5.01-6.44-2.15-15.81-9.55-11.4-1.09.65-1.21,1.68-1.83,2.19ZM292.77,274.39c-55.41,1.48-104.64,37.49-126.14,88-38.9,91.38,26.71,195.79,125.81,200.18,61.21,2.71,114.91-31.9,139.81-86.78,45.7-100.73-32.03-204.27-139.48-201.4ZM123.93,336.6c-10.25-4.84-21.88-8.21-32.39-12.61-8.89-.16-11.83,8.14-5.43,14.15,10.68,4.56,21.92,8.01,32.61,12.51.51.21.53,1.06,1.25,1.37,6.52,2.85,13.35,1.72,12.9-6.7-.33-6.14-4.15-5.69-8.23-7.78-.49-.25-.59-.88-.72-.94ZM517.6,327.87c-1.12-1.56-5.78-4.62-8.01-3.78-10.37,4.4-22.04,7.68-32.22,12.32-.52.24-.56,1.01-1.27,1.36-4.16,2.07-10.68,2.85-8.86,9.76,2.05,7.79,8.8,6.81,14.73,4.27.53-.23.58-1.08,1.27-1.36,7.42-3.07,25.63-8.27,31.06-12.3.4-.3,3.75-3.86,3.85-4.19.45-1.55.39-4.76-.54-6.07ZM119.02,413.99c-.49-.75-5-4.13-6.32-3.9l-86.37.44c-7.9,2.04-5.73,14.29,2.05,14.45h84.32c3.18-.35,6.98-4.74,6.98-7.75,0-.68-.35-2.76-.66-3.24ZM578.2,413.55c-1.55-2.03-2.83-3.14-5.54-3.46l-86.38.43c-7.67,2.01-5.76,14.37,2.06,14.46h84.32s3.64-1.3,3.64-1.3c2.73-3.75,5.22-5.77,1.89-10.12ZM98.98,507.64c10.17-4.28,20.64-7.9,30.75-12.34,6.09-5.4,3.14-15.5-5.73-13.78-5.96,1.16-24.09,8.84-30.33,11.68-.53.24-.62,1.04-1.27,1.36-5.09,2.51-11.12,2.56-9.61,10.52,1.64,8.6,9.8,5.9,15.47,3.5.49-.21.59-.88.72-.94ZM507.65,493.37l-31.13-11.97c-8.49-1.21-12.01,7.54-6.72,13.54,10.5,4.55,21.46,8.11,32.01,12.49.51.21.53,1.07,1.25,1.37,3.8,1.62,9.09,3.98,12.59.48.16-.16,2.43-3.46,2.48-3.68,1.91-7.11-4.41-9.1-9.82-11.24l-.67-.99ZM118.18,607.38c15.25-14.23,29.82-29.12,44.39-43.93,2.74-2.78,11.19-8.79,11.77-12.4,1.09-6.81-3.81-11.38-10.54-9.29-2.65.82-10.58,10.75-13.28,13.37-15.37,14.98-30.66,30.01-45.87,45.24-2.13,2.13-3.86,1.91-4.07,5.89-.35,6.66,6.79,9.86,12.24,6.61,2.54-1.51,3.54-3.79,5.36-5.49ZM432.08,541.62c-1.99.41-4.81,2.58-5.28,4.64-1.91,8.41,5.81,12,10.75,16.88,12.62,12.47,25.09,24.94,37.8,37.2,3.58,3.46,9.56,11.3,13.49,13.16,7.52,3.56,14.05-4.57,9.13-11.6-1.66-2.37-7.51-8.11-9.9-10.55-5.67-5.79-12.37-11.1-18.01-16.69-8.93-8.85-19.24-21.35-28.49-29.15-2.79-2.35-5.56-4.68-9.47-3.88ZM226.19,614.37c1.98-4.49,9.24-20.54,9.52-24.32.55-7.36-10.37-11.38-14.96-3.13-3.69,6.62-6.54,17.12-9.64,24.43-1.11,2.63-3.74,6.04-4.81,9.47-3.55,11.38,8.64,15.3,13.43,7.85,1.94-3.02,4.89-10.73,6.45-14.29ZM379.36,585.66c-5.57-6.15-13.96-3.3-14.05,5.02,5.38,11.56,9.13,27.42,15.58,37.77,2.37,3.8,7.71,5.26,11.3,2.18,1.1-.95,1.03-1.6,1.65-2.56.25-.39.98-.45,1.05-.61.35-.81.37-4.67.16-5.62-.11-.49-1.08-.43-1.41-1.2-4.99-11.55-8.99-23.55-14.27-34.98ZM294.84,598.08c-.74.78-1.18,2.02-1.65,3l-.43,84.49c1.13,9.36,15.14,8.92,15.51-.63v-81.8c-.35-6.54-8.92-9.78-13.43-5.06Z"/>
  <path class="st1" d="M292.77,274.39c107.45-2.87,185.18,100.67,139.48,201.4-.2-.98.85-2.32-1.02-1.33-4.13,2.18-8.19,5.51-12.2,7.63-18.7,9.91-53.72,16.92-74.37,12.27-3.92-.88-9.81-2.55-14.33-3.75-42.83-11.36-77.59-49.29-85.72-92.78-8.49-45.47,6.99-89.29,42.04-118.73,1.92-1.61,4.57-2.63,6.13-4.71Z"/>
  <path class="st0" d="M292.77,274.39c-1.56,2.09-4.21,3.1-6.13,4.71-35.05,29.44-50.53,73.26-42.04,118.73,8.12,43.49,42.89,81.42,85.72,92.78,4.52,1.2,10.41,2.87,14.33,3.75,20.65,4.65,55.67-2.36,74.37-12.27,4.02-2.13,8.07-5.45,12.2-7.63,1.87-.99.82.35,1.02,1.33-24.9,54.89-78.6,89.5-139.81,86.78-99.1-4.39-164.7-108.8-125.81-200.18,21.5-50.51,70.73-86.52,126.14-88Z"/>
  <path class="st3" d="M295.6,236.86c-2.08-2.02-2.58-3.18-2.86-6.14v-81.84c1.14-9.36,15.15-8.92,15.52.63v81.8c-1.19,6.41-7.07,10.97-12.67,5.54Z"/>
  <path class="st3" d="M294.84,598.08c4.51-4.72,13.08-1.48,13.43,5.06v81.8c-.37,9.55-14.38,9.99-15.51.63l.43-84.49c.47-.98.91-2.22,1.65-3Z"/>
  <path class="st4" d="M432.08,541.62c3.91-.8,6.68,1.53,9.47,3.88,9.25,7.8,19.56,20.3,28.49,29.15,5.65,5.6,12.34,10.9,18.01,16.69,2.39,2.44,8.24,8.18,9.9,10.55,4.92,7.03-1.6,15.16-9.13,11.6-3.92-1.86-9.9-9.7-13.49-13.16-12.71-12.25-25.18-24.72-37.8-37.2-4.94-4.88-12.66-8.47-10.75-16.88.47-2.06,3.29-4.23,5.28-4.64Z"/>
  <path class="st4" d="M118.18,607.38c-1.82,1.7-2.82,3.98-5.36,5.49-5.45,3.25-12.6.05-12.24-6.61.21-3.99,1.95-3.77,4.07-5.89,15.21-15.23,30.5-30.25,45.87-45.24,2.69-2.63,10.62-12.55,13.28-13.37,6.73-2.08,11.63,2.48,10.54,9.29-.58,3.61-9.03,9.61-11.77,12.4-14.57,14.81-29.14,29.71-44.39,43.93Z"/>
  <path class="st4" d="M102.65,222.52c2.34-2.6,7.86-3.2,10.67-.82.79.67,1.25,1.99,2.14,2.82,16.24,15.17,31.91,30.88,47.42,46.79,3.37,3.45,10.84,8.2,11.44,13.37.78,6.71-5.94,10.34-11.69,7.32-3.23-1.69-9.72-10.34-12.76-13.27-15.29-14.76-30.87-28.91-45.23-44.64-.82-.9-2.21-1.35-2.82-2.14-2.01-2.56-1.2-7.19.83-9.44Z"/>
  <path class="st4" d="M486.58,223.36c.62-.51.74-1.55,1.83-2.19,7.4-4.41,14.56,4.96,9.55,11.4-13.82,15.18-29.18,28.72-43.72,43.05-4.15,4.09-13.9,16.61-19.25,17.34s-9.17-3.51-8.28-8.92c.75-4.57,12.01-13.22,15.49-16.74,14.31-14.46,28.86-30.98,44.39-43.93Z"/>
  <path class="st0" d="M578.2,413.55c3.33,4.36.84,6.38-1.89,10.12l-3.64,1.32h-84.32c-7.82-.1-9.73-12.46-2.06-14.47l86.38-.43c2.7.32,3.99,1.43,5.54,3.46Z"/>
  <path class="st0" d="M119.02,413.99c.31.48.66,2.56.66,3.24,0,3.01-3.8,7.4-6.98,7.76H28.38c-7.78-.18-9.95-12.42-2.05-14.46l86.37-.44c1.32-.23,5.83,3.15,6.32,3.9Z"/>
  <path class="st5" d="M507.65,493.37l.67.99c5.41,2.14,11.73,4.13,9.82,11.24-.06.21-2.33,3.52-2.48,3.68-3.5,3.51-8.79,1.14-12.59-.48-.72-.31-.75-1.16-1.25-1.37-10.56-4.38-21.51-7.94-32.01-12.49-5.29-6-1.77-14.75,6.72-13.54l31.13,11.97Z"/>
  <path class="st4" d="M517.6,327.87c.94,1.3.99,4.51.54,6.07-.1.33-3.44,3.89-3.85,4.19-5.44,4.04-23.64,9.23-31.06,12.3-.69.28-.73,1.14-1.27,1.36-5.92,2.53-12.68,3.51-14.73-4.27-1.82-6.91,4.7-7.68,8.86-9.76.71-.35.75-1.12,1.27-1.36,10.18-4.65,21.84-7.92,32.22-12.32,2.23-.84,6.89,2.22,8.01,3.78Z"/>
  <path class="st4" d="M225.43,219.65c.07.15.88.24,1.2.97,3.37,7.71,6.07,15.96,8.97,23.87-.57,7.82-9.26,11.82-14.03,4.71-4.1-6.12-7.54-19.07-10.66-26.4-.22-.51-1.07-.54-1.37-1.25-1.04-2.44-3.92-8.58-4.14-10.76-.62-6.37,5.28-9.9,11.1-7.95,3.81,1.27,7.16,12.83,8.93,16.8Z"/>
  <path class="st4" d="M394.1,206.56c1.31,1.92,1.89,3.41.89,5.97-.2.51-.94.59-1.11,1-4.8,11.85-9.29,23.84-14.3,35.6-2.58,1.5-4.34,4.28-7.62,4.05-3.87-.27-7.25-5.6-6.52-9.32,4.49-10.5,7.93-22.66,12.93-32.82.26-.53.99-.59,1.18-.94,1.38-2.58,1.7-6.63,5.41-7.47,4.38-1,6.78.46,9.15,3.93Z"/>
  <path class="st5" d="M226.19,614.37c-1.57,3.56-4.51,11.27-6.45,14.29-4.79,7.45-16.98,3.53-13.43-7.85,1.07-3.42,3.7-6.84,4.81-9.47,3.09-7.31,5.94-17.81,9.64-24.43,4.6-8.24,15.51-4.23,14.96,3.13-.28,3.78-7.54,19.83-9.52,24.32Z"/>
  <path class="st4" d="M98.98,507.64c-.13.06-.24.73-.72.94-5.67,2.4-13.84,5.1-15.47-3.5-1.52-7.96,4.52-8.01,9.61-10.52.65-.32.74-1.12,1.27-1.36,6.25-2.84,24.38-10.52,30.33-11.68,8.87-1.72,11.82,8.38,5.73,13.78-10.11,4.44-20.58,8.06-30.75,12.34Z"/>
  <path class="st4" d="M123.93,336.6c.13.06.23.69.72.94,4.09,2.09,7.9,1.63,8.23,7.78.45,8.41-6.38,9.55-12.9,6.7-.72-.32-.75-1.16-1.25-1.37-10.69-4.5-21.93-7.95-32.61-12.51-6.41-6.01-3.46-14.31,5.43-14.15,10.51,4.4,22.14,7.77,32.39,12.61Z"/>
  <path class="st4" d="M379.36,585.66c5.28,11.43,9.28,23.43,14.27,34.98.33.77,1.3.71,1.41,1.2.21.95.19,4.8-.16,5.62-.07.16-.8.22-1.05.61-.62.97-.55,1.61-1.65,2.56-3.59,3.09-8.93,1.62-11.3-2.18-6.45-10.35-10.2-26.21-15.58-37.77.09-8.32,8.48-11.17,14.05-5.02Z"/>
</svg>